<svg xmlns="http://www.w3.org/2000/svg" viewBox="0 0 128 128" width="128" height="128">
  <defs>
    <linearGradient id="grad128" x1="0%" y1="0%" x2="100%" y2="100%">
      <stop offset="0%" style="stop-color:#4F46E5"/>
      <stop offset="100%" style="stop-color:#7C3AED"/>
    </linearGradient>
    <linearGradient id="sec128" x1="0%" y1="0%" x2="100%" y2="100%">
      <stop offset="0%" style="stop-color:#06B6D4"/>
      <stop offset="100%" style="stop-color:#3B82F6"/>
    </linearGradient>
    <filter id="shadow128">
      <feDropShadow dx="2" dy="2" stdDeviation="3" flood-opacity="0.3"/>
    </filter>
  </defs>
  <circle cx="64" cy="64" r="56" fill="url(#grad128)" filter="url(#shadow128)"/>
  <rect x="32" y="42" width="64" height="40" rx="4" fill="white" opacity="0.95"/>
  <rect x="54" y="34" width="20" height="8" rx="4" fill="white" opacity="0.8"/>
  <rect x="61" y="50" width="6" height="4" rx="1" fill="url(#sec128)"/>
  <circle cx="42" cy="52" r="2" fill="url(#sec128)" opacity="0.8"/>
  <circle cx="52" cy="58" r="2" fill="url(#sec128)" opacity="0.8"/>
  <circle cx="76" cy="58" r="2" fill="url(#sec128)" opacity="0.8"/>
  <circle cx="86" cy="52" r="2" fill="url(#sec128)" opacity="0.8"/>
  <path d="M42 52 L52 58 L76 58 L86 52" stroke="url(#sec128)" stroke-width="1.5" fill="none" opacity="0.6"/>
  <circle cx="76" cy="46" r="1.5" fill="#FFD700" opacity="0.9"/>
  <path d="M76 43 L77.5 45.5 L76 46 L74.5 45.5 Z" fill="#FFD700" opacity="0.9"/>
  <rect x="36" y="68" width="56" height="2" rx="1" fill="url(#sec128)" opacity="0.3"/>
</svg>